<?xml version="1.0" encoding="utf-8"?>
<!-- Generator: Adobe Illustrator 22.0.1, SVG Export Plug-In . SVG Version: 6.00 Build 0)  -->
<svg version="1.1" id="Слой_1" xmlns="http://www.w3.org/2000/svg" xmlns:xlink="http://www.w3.org/1999/xlink" x="0px" y="0px"
	 viewBox="0 0 283.5 283.5" style="enable-background:new 0 0 283.5 283.5;" xml:space="preserve">
<style type="text/css">
	.st0{fill:#969696;}
</style>
<path class="st0" d="M283.5,141.3c0.4,77.8-63,141.5-141.4,142C64.3,283.8,0.5,220.4,0,142C-0.5,64.2,63,0.5,141.4,0
	C219.2-0.5,283,63,283.5,141.3z M173.5,150.1c-49.1,0-98.2,0-147.3,0c-8.6,0-11,3.1-9.7,11.7c10.6,66.4,71.4,113,138.4,105.9
	c67.6-7.1,117.3-65.6,113.5-133.5C265,72.6,216.7,22,155.1,15.6c-68-7.1-128.8,40.1-139,107.9c-0.9,5.7,1.9,9.2,7.6,9.7
	c1.3,0.1,2.7,0.1,4,0.1c48.2,0,96.4,0,144.7,0c2,0,4-0.3,7-0.5c-1.9-2.2-2.9-3.5-4.1-4.7c-12.8-12.8-25.7-25.7-38.6-38.4
	c-2.6-2.6-4.6-5.8-2.9-9.1c1.3-2.5,3.9-4.8,6.5-6c3.6-1.6,6.4,1.2,8.9,3.6c18.4,18.2,36.8,36.4,55.2,54.6c0.6,0.6,1.3,1.2,1.9,1.9
	c4,4.6,4.2,10.2-0.1,14.4c-19.4,19.3-38.9,38.5-58.5,57.6c-3.8,3.7-8.4,3.5-11.9,0c-3.4-3.5-3.4-8.3,0.5-12.3
	c12.9-13,25.9-25.9,38.8-38.8c1.2-1.2,2.3-2.5,3.5-3.8c-0.2-0.4-0.3-0.8-0.5-1.2C176.7,150.3,175.1,150.1,173.5,150.1z"/>
</svg>
