<?xml version="1.0" encoding="utf-8"?>
<!-- Generator: Adobe Illustrator 22.0.1, SVG Export Plug-In . SVG Version: 6.00 Build 0)  -->
<svg version="1.1" id="Слой_1" xmlns="http://www.w3.org/2000/svg" xmlns:xlink="http://www.w3.org/1999/xlink" x="0px" y="0px"
	 viewBox="0 0 283.5 283.5" style="enable-background:new 0 0 283.5 283.5;" xml:space="preserve">
<style type="text/css">
	.st0{fill:#969696;}
</style>
<path class="st0" d="M142.1,0C220.5,0.5,284,64.2,283.5,142c-0.5,78.4-64.3,141.8-142.1,141.3C63,282.8-0.4,219.1,0,141.3
	C0.4,63,64.2-0.5,142.1,0z M105.2,150.4c-0.2,0.4-0.3,0.8-0.5,1.2c1.2,1.3,2.3,2.6,3.5,3.8c12.9,12.9,26,25.8,38.8,38.8
	c3.9,4,4,8.8,0.5,12.3c-3.5,3.6-8.1,3.8-11.9,0c-19.6-19.1-39.1-38.3-58.5-57.6c-4.3-4.3-4.1-9.9-0.1-14.4c0.6-0.7,1.2-1.3,1.9-1.9
	c18.4-18.2,36.8-36.4,55.2-54.6c2.5-2.5,5.3-5.2,8.9-3.6c2.6,1.1,5.2,3.5,6.5,6c1.7,3.4-0.3,6.5-2.9,9.1
	c-12.9,12.8-25.7,25.6-38.6,38.4c-1.2,1.2-2.2,2.6-4.1,4.7c3.1,0.2,5.1,0.5,7,0.5c48.2,0,96.4,0,144.7,0c1.3,0,2.7,0.1,4-0.1
	c5.7-0.4,8.5-4,7.6-9.7C257,55.5,196.3,8.4,128.2,15.4C66.8,22,18.5,72.6,15,134.2c-3.8,67.9,46,126.4,113.5,133.5
	c67,7,127.8-39.5,138.4-105.9c1.4-8.6-1.1-11.7-9.7-11.7c-49.1,0-98.2,0-147.3,0C108.3,150.1,106.8,150.3,105.2,150.4z"/>
</svg>
