<?xml version="1.0" encoding="utf-8"?>
<!-- Generator: Adobe Illustrator 22.0.1, SVG Export Plug-In . SVG Version: 6.00 Build 0)  -->
<svg version="1.1" id="Слой_1" xmlns="http://www.w3.org/2000/svg" xmlns:xlink="http://www.w3.org/1999/xlink" x="0px" y="0px"
	 viewBox="0 0 24 17" style="enable-background:new 0 0 24 17;" xml:space="preserve">
<style type="text/css">
	.st0{fill:#FFFFFF;}
</style>
<path class="st0" d="M24,0.1v16.8h-3.3v-1.1h2V1.1h-2V0.1H24z"/>
<path class="st0" d="M17.7,3.5c0.3,0,0.5,0.1,0.7,0.3c0.2,0.2,0.3,0.4,0.3,0.7c0,0.3-0.1,0.5-0.3,0.7c-0.2,0.2-0.4,0.3-0.7,0.3
	S17.2,5.4,17,5.2s-0.3-0.4-0.3-0.7c0-0.3,0.1-0.5,0.3-0.7C17.2,3.6,17.4,3.5,17.7,3.5z M17.7,11.2c0.3,0,0.5,0.1,0.7,0.3
	c0.2,0.2,0.3,0.4,0.3,0.7c0,0.3-0.1,0.5-0.3,0.7c-0.2,0.2-0.4,0.3-0.7,0.3S17.2,13,17,12.8s-0.3-0.4-0.3-0.7c0-0.3,0.1-0.5,0.3-0.7
	S17.4,11.2,17.7,11.2z"/>
<path class="st0" d="M9.7,2.1c0.9,0,1.8,0.2,2.6,0.5c0.8,0.3,1.5,0.8,2.1,1.3s1,1.3,1.4,2c0.3,0.8,0.5,1.6,0.5,2.6
	c0,0.9-0.2,1.8-0.5,2.6c-0.3,0.8-0.8,1.5-1.4,2c-0.6,0.6-1.3,1-2.1,1.3c-0.8,0.3-1.7,0.5-2.6,0.5c-0.9,0-1.8-0.2-2.6-0.5
	c-0.8-0.3-1.5-0.8-2-1.4l0.8-0.8c0.5,0.5,1.1,0.9,1.7,1.1c0.6,0.2,1.3,0.4,2,0.4c0.8,0,1.5-0.1,2.1-0.4c0.6-0.3,1.2-0.6,1.7-1.1
	c0.5-0.5,0.9-1,1.1-1.7C14.8,10,15,9.3,15,8.5c0-0.8-0.1-1.4-0.4-2.1c-0.3-0.6-0.6-1.2-1.1-1.7c-0.5-0.5-1-0.8-1.7-1.1
	c-0.6-0.3-1.3-0.4-2.1-0.4c-0.7,0-1.4,0.1-2,0.4C7,3.9,6.4,4.3,5.9,4.8L5.1,4c0.6-0.6,1.2-1.1,2-1.4C7.9,2.3,8.8,2.1,9.7,2.1z"/>
<path class="st0" d="M0,0.1h3.3v1.1h-2v14.7h2v1.1H0V0.1z"/>
</svg>
